<svg xmlns="http://www.w3.org/2000/svg" xmlns:xlink="http://www.w3.org/1999/xlink" version="1.1" class="marks" width="693" height="364" viewBox="0 0 693 364"><rect width="693" height="364" fill="white"/><g fill="none" stroke-miterlimit="10" transform="translate(44,27)"><g class="mark-group role-frame root" role="graphics-object" aria-roledescription="group mark container"><g transform="translate(0,0)"><path class="background" aria-hidden="true" d="M0.5,0.5h600v300h-600Z" stroke="#ddd"/><g><g class="mark-group role-axis" aria-hidden="true"><g transform="translate(0.5,300.5)"><path class="background" aria-hidden="true" d="M0,0h0v0h0Z" pointer-events="none"/><g><g class="mark-rule role-axis-grid" pointer-events="none"><line transform="translate(0,-300)" x2="0" y2="300" stroke="#ddd" stroke-width="1" opacity="1"/><line transform="translate(38,-300)" x2="0" y2="300" stroke="#ddd" stroke-width="1" opacity="1"/><line transform="translate(75,-300)" x2="0" y2="300" stroke="#ddd" stroke-width="1" opacity="1"/><line transform="translate(113,-300)" x2="0" y2="300" stroke="#ddd" stroke-width="1" opacity="1"/><line transform="translate(150,-300)" x2="0" y2="300" stroke="#ddd" stroke-width="1" opacity="1"/><line transform="translate(188,-300)" x2="0" y2="300" stroke="#ddd" stroke-width="1" opacity="1"/><line transform="translate(225,-300)" x2="0" y2="300" stroke="#ddd" stroke-width="1" opacity="1"/><line transform="translate(263,-300)" x2="0" y2="300" stroke="#ddd" stroke-width="1" opacity="1"/><line transform="translate(300,-300)" x2="0" y2="300" stroke="#ddd" stroke-width="1" opacity="1"/><line transform="translate(338,-300)" x2="0" y2="300" stroke="#ddd" stroke-width="1" opacity="1"/><line transform="translate(375,-300)" x2="0" y2="300" stroke="#ddd" stroke-width="1" opacity="1"/><line transform="translate(413,-300)" x2="0" y2="300" stroke="#ddd" stroke-width="1" opacity="1"/><line transform="translate(450,-300)" x2="0" y2="300" stroke="#ddd" stroke-width="1" opacity="1"/><line transform="translate(488,-300)" x2="0" y2="300" stroke="#ddd" stroke-width="1" opacity="1"/><line transform="translate(525,-300)" x2="0" y2="300" stroke="#ddd" stroke-width="1" opacity="1"/><line transform="translate(563,-300)" x2="0" y2="300" stroke="#ddd" stroke-width="1" opacity="1"/><line transform="translate(600,-300)" x2="0" y2="300" stroke="#ddd" stroke-width="1" opacity="1"/></g></g><path class="foreground" aria-hidden="true" d="" pointer-events="none" display="none"/></g></g><g class="mark-group role-axis" aria-hidden="true"><g transform="translate(0.5,0.5)"><path class="background" aria-hidden="true" d="M0,0h0v0h0Z" pointer-events="none"/><g><g class="mark-rule role-axis-grid" pointer-events="none"><line transform="translate(0,300)" x2="600" y2="0" stroke="#ddd" stroke-width="1" opacity="1"/><line transform="translate(0,270)" x2="600" y2="0" stroke="#ddd" stroke-width="1" opacity="1"/><line transform="translate(0,240)" x2="600" y2="0" stroke="#ddd" stroke-width="1" opacity="1"/><line transform="translate(0,210)" x2="600" y2="0" stroke="#ddd" stroke-width="1" opacity="1"/><line transform="translate(0,180)" x2="600" y2="0" stroke="#ddd" stroke-width="1" opacity="1"/><line transform="translate(0,150)" x2="600" y2="0" stroke="#ddd" stroke-width="1" opacity="1"/><line transform="translate(0,120)" x2="600" y2="0" stroke="#ddd" stroke-width="1" opacity="1"/><line transform="translate(0,90)" x2="600" y2="0" stroke="#ddd" stroke-width="1" opacity="1"/><line transform="translate(0,60)" x2="600" y2="0" stroke="#ddd" stroke-width="1" opacity="1"/><line transform="translate(0,30)" x2="600" y2="0" stroke="#ddd" stroke-width="1" opacity="1"/><line transform="translate(0,0)" x2="600" y2="0" stroke="#ddd" stroke-width="1" opacity="1"/></g></g><path class="foreground" aria-hidden="true" d="" pointer-events="none" display="none"/></g></g><g class="mark-group role-axis" role="graphics-symbol" aria-roledescription="axis" aria-label="X-axis titled 'Cosine Similarity' for a linear scale with values from 0.987 to 0.995"><g transform="translate(0.5,300.5)"><path class="background" aria-hidden="true" d="M0,0h0v0h0Z" pointer-events="none"/><g><g class="mark-rule role-axis-tick" pointer-events="none"><line transform="translate(0,0)" x2="0" y2="5" stroke="#888" stroke-width="1" opacity="1"/><line transform="translate(38,0)" x2="0" y2="5" stroke="#888" stroke-width="1" opacity="1"/><line transform="translate(75,0)" x2="0" y2="5" stroke="#888" stroke-width="1" opacity="1"/><line transform="translate(113,0)" x2="0" y2="5" stroke="#888" stroke-width="1" opacity="1"/><line transform="translate(150,0)" x2="0" y2="5" stroke="#888" stroke-width="1" opacity="1"/><line transform="translate(188,0)" x2="0" y2="5" stroke="#888" stroke-width="1" opacity="1"/><line transform="translate(225,0)" x2="0" y2="5" stroke="#888" stroke-width="1" opacity="1"/><line transform="translate(263,0)" x2="0" y2="5" stroke="#888" stroke-width="1" opacity="1"/><line transform="translate(300,0)" x2="0" y2="5" stroke="#888" stroke-width="1" opacity="1"/><line transform="translate(338,0)" x2="0" y2="5" stroke="#888" stroke-width="1" opacity="1"/><line transform="translate(375,0)" x2="0" y2="5" stroke="#888" stroke-width="1" opacity="1"/><line transform="translate(413,0)" x2="0" y2="5" stroke="#888" stroke-width="1" opacity="1"/><line transform="translate(450,0)" x2="0" y2="5" stroke="#888" stroke-width="1" opacity="1"/><line transform="translate(488,0)" x2="0" y2="5" stroke="#888" stroke-width="1" opacity="1"/><line transform="translate(525,0)" x2="0" y2="5" stroke="#888" stroke-width="1" opacity="1"/><line transform="translate(563,0)" x2="0" y2="5" stroke="#888" stroke-width="1" opacity="1"/><line transform="translate(600,0)" x2="0" y2="5" stroke="#888" stroke-width="1" opacity="1"/></g><g class="mark-text role-axis-label" pointer-events="none"><text text-anchor="start" transform="translate(0,15)" font-family="sans-serif" font-size="10px" fill="#000" opacity="1">0.9870</text><text text-anchor="middle" transform="translate(37.500000000004164,15)" font-family="sans-serif" font-size="10px" fill="#000" opacity="0">0.9875</text><text text-anchor="middle" transform="translate(75,15)" font-family="sans-serif" font-size="10px" fill="#000" opacity="1">0.9880</text><text text-anchor="middle" transform="translate(112.50000000000416,15)" font-family="sans-serif" font-size="10px" fill="#000" opacity="0">0.9885</text><text text-anchor="middle" transform="translate(150,15)" font-family="sans-serif" font-size="10px" fill="#000" opacity="1">0.9890</text><text text-anchor="middle" transform="translate(187.50000000000415,15)" font-family="sans-serif" font-size="10px" fill="#000" opacity="0">0.9895</text><text text-anchor="middle" transform="translate(225,15)" font-family="sans-serif" font-size="10px" fill="#000" opacity="1">0.9900</text><text text-anchor="middle" transform="translate(262.50000000000415,15)" font-family="sans-serif" font-size="10px" fill="#000" opacity="0">0.9905</text><text text-anchor="middle" transform="translate(300,15)" font-family="sans-serif" font-size="10px" fill="#000" opacity="1">0.9910</text><text text-anchor="middle" transform="translate(337.50000000000415,15)" font-family="sans-serif" font-size="10px" fill="#000" opacity="0">0.9915</text><text text-anchor="middle" transform="translate(375,15)" font-family="sans-serif" font-size="10px" fill="#000" opacity="1">0.9920</text><text text-anchor="middle" transform="translate(412.50000000000415,15)" font-family="sans-serif" font-size="10px" fill="#000" opacity="0">0.9925</text><text text-anchor="middle" transform="translate(450,15)" font-family="sans-serif" font-size="10px" fill="#000" opacity="1">0.9930</text><text text-anchor="middle" transform="translate(487.50000000000415,15)" font-family="sans-serif" font-size="10px" fill="#000" opacity="0">0.9935</text><text text-anchor="middle" transform="translate(525,15)" font-family="sans-serif" font-size="10px" fill="#000" opacity="1">0.9940</text><text text-anchor="middle" transform="translate(562.5000000000041,15)" font-family="sans-serif" font-size="10px" fill="#000" opacity="0">0.9945</text><text text-anchor="end" transform="translate(600,15)" font-family="sans-serif" font-size="10px" fill="#000" opacity="1">0.9950</text></g><g class="mark-rule role-axis-domain" pointer-events="none"><line transform="translate(0,0)" x2="600" y2="0" stroke="#888" stroke-width="1" opacity="1"/></g><g class="mark-text role-axis-title" pointer-events="none"><text text-anchor="middle" transform="translate(300,30)" font-family="sans-serif" font-size="11px" font-weight="bold" fill="#000" opacity="1">Cosine Similarity</text></g></g><path class="foreground" aria-hidden="true" d="" pointer-events="none" display="none"/></g></g><g class="mark-group role-axis" role="graphics-symbol" aria-roledescription="axis" aria-label="Y-axis titled 'Density' for a linear scale with values from 0 to 500"><g transform="translate(0.5,0.5)"><path class="background" aria-hidden="true" d="M0,0h0v0h0Z" pointer-events="none"/><g><g class="mark-rule role-axis-tick" pointer-events="none"><line transform="translate(0,300)" x2="-5" y2="0" stroke="#888" stroke-width="1" opacity="1"/><line transform="translate(0,270)" x2="-5" y2="0" stroke="#888" stroke-width="1" opacity="1"/><line transform="translate(0,240)" x2="-5" y2="0" stroke="#888" stroke-width="1" opacity="1"/><line transform="translate(0,210)" x2="-5" y2="0" stroke="#888" stroke-width="1" opacity="1"/><line transform="translate(0,180)" x2="-5" y2="0" stroke="#888" stroke-width="1" opacity="1"/><line transform="translate(0,150)" x2="-5" y2="0" stroke="#888" stroke-width="1" opacity="1"/><line transform="translate(0,120)" x2="-5" y2="0" stroke="#888" stroke-width="1" opacity="1"/><line transform="translate(0,90)" x2="-5" y2="0" stroke="#888" stroke-width="1" opacity="1"/><line transform="translate(0,60)" x2="-5" y2="0" stroke="#888" stroke-width="1" opacity="1"/><line transform="translate(0,30)" x2="-5" y2="0" stroke="#888" stroke-width="1" opacity="1"/><line transform="translate(0,0)" x2="-5" y2="0" stroke="#888" stroke-width="1" opacity="1"/></g><g class="mark-text role-axis-label" pointer-events="none"><text text-anchor="end" transform="translate(-7,303)" font-family="sans-serif" font-size="10px" fill="#000" opacity="1">0</text><text text-anchor="end" transform="translate(-7,273)" font-family="sans-serif" font-size="10px" fill="#000" opacity="1">50</text><text text-anchor="end" transform="translate(-7,243)" font-family="sans-serif" font-size="10px" fill="#000" opacity="1">100</text><text text-anchor="end" transform="translate(-7,213)" font-family="sans-serif" font-size="10px" fill="#000" opacity="1">150</text><text text-anchor="end" transform="translate(-7,183)" font-family="sans-serif" font-size="10px" fill="#000" opacity="1">200</text><text text-anchor="end" transform="translate(-7,153)" font-family="sans-serif" font-size="10px" fill="#000" opacity="1">250</text><text text-anchor="end" transform="translate(-7,123)" font-family="sans-serif" font-size="10px" fill="#000" opacity="1">300</text><text text-anchor="end" transform="translate(-7,93.00000000000001)" font-family="sans-serif" font-size="10px" fill="#000" opacity="1">350</text><text text-anchor="end" transform="translate(-7,62.999999999999986)" font-family="sans-serif" font-size="10px" fill="#000" opacity="1">400</text><text text-anchor="end" transform="translate(-7,32.99999999999999)" font-family="sans-serif" font-size="10px" fill="#000" opacity="1">450</text><text text-anchor="end" transform="translate(-7,3)" font-family="sans-serif" font-size="10px" fill="#000" opacity="1">500</text></g><g class="mark-rule role-axis-domain" pointer-events="none"><line transform="translate(0,300)" x2="0" y2="-300" stroke="#888" stroke-width="1" opacity="1"/></g><g class="mark-text role-axis-title" pointer-events="none"><text text-anchor="middle" transform="translate(-27.700000762939453,150) rotate(-90) translate(0,-2)" font-family="sans-serif" font-size="11px" font-weight="bold" fill="#000" opacity="1">Density</text></g></g><path class="foreground" aria-hidden="true" d="" pointer-events="none" display="none"/></g></g><g class="mark-group role-scope pathgroup" role="graphics-object" aria-roledescription="group mark container"><g transform="translate(0,0)"><path class="background" aria-hidden="true" d="M0,0h600v300h-600Z"/><g><g class="mark-line role-mark marks" role="graphics-object" aria-roledescription="line mark container"><path aria-label="Cosine Similarity: 0.987883925438; Density: 7.73333433088e-14; label: 0" role="graphics-symbol" aria-roledescription="line mark" d="M66.294,300L68.806,300L71.318,300L73.83,300L76.342,300L78.854,300L81.366,300L83.878,300L86.39,300L88.902,300L91.413,300L93.925,300L96.437,300L98.949,300L101.461,300L103.973,300L106.485,300L108.997,300L111.509,300L114.021,300L116.532,300L119.044,300L121.556,300L124.068,300L126.58,300L129.092,300L131.604,300L134.116,300L136.628,300L139.14,300L141.651,299.999L144.163,299.999L146.675,299.998L149.187,299.997L151.699,299.995L154.211,299.992L156.723,299.988L159.235,299.981L161.747,299.97L164.259,299.954L166.77,299.93L169.282,299.896L171.794,299.846L174.306,299.777L176.818,299.68L179.33,299.547L181.842,299.369L184.354,299.131L186.866,298.819L189.378,298.417L191.889,297.904L194.401,297.261L196.913,296.465L199.425,295.493L201.937,294.323L204.449,292.932L206.961,291.302L209.473,289.416L211.985,287.263L214.497,284.835L217.008,282.132L219.52,279.161L222.032,275.936L224.544,272.479L227.056,268.82L229.568,264.997L232.08,261.056L234.592,257.047L237.104,253.03L239.616,249.064L242.127,245.213L244.639,241.543L247.151,238.114L249.663,234.985L252.175,232.205L254.687,229.815L257.199,227.84L259.711,226.294L262.223,225.168L264.735,224.44L267.246,224.063L269.758,223.976L272.27,224.098L274.782,224.333L277.294,224.578L279.806,224.72L282.318,224.648L284.83,224.259L287.342,223.457L289.854,222.166L292.365,220.333L294.877,217.928L297.389,214.95L299.901,211.427L302.413,207.41L304.925,202.979L307.437,198.229L309.949,193.271L312.461,188.224L314.972,183.205L317.484,178.327L319.996,173.692L322.508,169.384L325.02,165.466L327.532,161.982L330.044,158.952L332.556,156.376L335.068,154.237L337.58,152.502L340.091,151.127L342.603,150.059L345.115,149.239L347.627,148.605L350.139,148.093L352.651,147.632L355.163,147.151L357.675,146.575L360.187,145.827L362.699,144.827L365.21,143.499L367.722,141.768L370.234,139.573L372.746,136.865L375.258,133.615L377.77,129.816L380.282,125.489L382.794,120.682L385.306,115.467L387.818,109.938L390.329,104.21L392.841,98.407L395.353,92.658L397.865,87.092L400.377,81.831L402.889,76.986L405.401,72.652L407.913,68.91L410.425,65.822L412.937,63.432L415.448,61.768L417.96,60.843L420.472,60.652L422.984,61.178L425.496,62.386L428.008,64.229L430.52,66.648L433.032,69.57L435.544,72.917L438.056,76.601L440.567,80.537L443.079,84.639L445.591,88.832L448.103,93.048L450.615,97.235L453.127,101.355L455.639,105.383L458.151,109.31L460.663,113.137L463.175,116.87L465.686,120.523L468.198,124.106L470.71,127.631L473.222,131.104L475.734,134.531L478.246,137.914L480.758,141.256L483.27,144.564L485.782,147.85L488.294,151.135L490.805,154.451L493.317,157.836L495.829,161.341L498.341,165.019L500.853,168.925L503.365,173.111L505.877,177.622L508.389,182.486L510.901,187.718L513.413,193.308L515.924,199.229L518.436,205.429L520.948,211.837L523.46,218.367L525.972,224.919L528.484,231.389L530.996,237.672L533.508,243.669L536.02,249.292L538.532,254.468L541.043,259.146L543.555,263.294L546.067,266.903L548.579,269.988L551.091,272.58L553.603,274.729L556.115,276.498L558.627,277.956L561.139,279.176L563.651,280.231L566.162,281.185L568.674,282.096" stroke="#4c78a8" stroke-width="2" opacity="0.7"/></g></g><path class="foreground" aria-hidden="true" d="" display="none"/></g><g transform="translate(0,0)"><path class="background" aria-hidden="true" d="M0,0h600v300h-600Z"/><g><g class="mark-line role-mark marks" role="graphics-object" aria-roledescription="line mark container"><path aria-label="Cosine Similarity: 0.987883925438; Density: 44.4977672109; label: 1" role="graphics-symbol" aria-roledescription="line mark" d="M66.294,273.301L68.806,270.724L71.318,268.159L73.83,265.643L76.342,263.216L78.854,260.918L81.366,258.788L83.878,256.866L86.39,255.185L88.902,253.778L91.413,252.667L93.925,251.869L96.437,251.389L98.949,251.222L101.461,251.352L103.973,251.747L106.485,252.366L108.997,253.155L111.509,254.048L114.021,254.973L116.532,255.851L119.044,256.597L121.556,257.127L124.068,257.358L126.58,257.212L129.092,256.619L131.604,255.52L134.116,253.868L136.628,251.631L139.14,248.794L141.651,245.363L144.163,241.36L146.675,236.828L149.187,231.832L151.699,226.452L154.211,220.786L156.723,214.945L159.235,209.05L161.747,203.225L164.259,197.595L166.77,192.279L169.282,187.384L171.794,183.001L174.306,179.199L176.818,176.025L179.33,173.499L181.842,171.614L184.354,170.337L186.866,169.61L189.378,169.356L191.889,169.478L194.401,169.87L196.913,170.419L199.425,171.011L201.937,171.538L204.449,171.901L206.961,172.015L209.473,171.815L211.985,171.249L214.497,170.289L217.008,168.922L219.52,167.149L222.032,164.984L224.544,162.451L227.056,159.576L229.568,156.39L232.08,152.925L234.592,149.21L237.104,145.275L239.616,141.149L242.127,136.861L244.639,132.443L247.151,127.922L249.663,123.329L252.175,118.691L254.687,114.029L257.199,109.359L259.711,104.685L262.223,100.004L264.735,95.299L267.246,90.545L269.758,85.714L272.27,80.775L274.782,75.708L277.294,70.504L279.806,65.178L282.318,59.773L284.83,54.36L287.342,49.046L289.854,43.968L292.365,39.284L294.877,35.172L297.389,31.814L299.901,29.384L302.413,28.036L304.925,27.893L307.437,29.036L309.949,31.5L312.461,35.267L314.972,40.273L317.484,46.408L319.996,53.528L322.508,61.462L325.02,70.028L327.532,79.044L330.044,88.338L332.556,97.758L335.068,107.18L337.58,116.509L340.091,125.682L342.603,134.661L345.115,143.433L347.627,151.997L350.139,160.363L352.651,168.539L355.163,176.526L357.675,184.317L360.187,191.889L362.699,199.208L365.21,206.231L367.722,212.906L370.234,219.183L372.746,225.015L375.258,230.365L377.77,235.21L380.282,239.545L382.794,243.381L385.306,246.746L387.818,249.685L390.329,252.252L392.841,254.508L395.353,256.519L397.865,258.349L400.377,260.058L402.889,261.698L405.401,263.311L407.913,264.931L410.425,266.58L412.937,268.268L415.448,269.995L417.96,271.754L420.472,273.529L422.984,275.296L425.496,277.029L428.008,278.697L430.52,280.271L433.032,281.722L435.544,283.025L438.056,284.163L440.567,285.125L443.079,285.908L445.591,286.521L448.103,286.981L450.615,287.312L453.127,287.546L455.639,287.719L458.151,287.868L460.663,288.029L463.175,288.234L465.686,288.509L468.198,288.873L470.71,289.334L473.222,289.894L475.734,290.546L478.246,291.274L480.758,292.059L483.27,292.878L485.782,293.709L488.294,294.526L490.805,295.311L493.317,296.046L495.829,296.718L498.341,297.319L500.853,297.844L503.365,298.294L505.877,298.672L508.389,298.982L510.901,299.232L513.413,299.431L515.924,299.584L518.436,299.701L520.948,299.789L523.46,299.853L525.972,299.899L528.484,299.932L530.996,299.955L533.508,299.971L536.02,299.981L538.532,299.988L541.043,299.993L543.555,299.996L546.067,299.997L548.579,299.998L551.091,299.999L553.603,299.999L556.115,300L558.627,300L561.139,300L563.651,300L566.162,300L568.674,300" stroke="#f58518" stroke-width="2" opacity="0.7"/></g></g><path class="foreground" aria-hidden="true" d="" display="none"/></g></g><g class="mark-group role-legend" role="graphics-symbol" aria-roledescription="legend" aria-label="Symbol legend titled 'label' for stroke color with 2 values: 0, 1"><g transform="translate(618,0)"><path class="background" aria-hidden="true" d="M0,0h26v40h-26Z" pointer-events="none"/><g><g class="mark-group role-legend-entry"><g transform="translate(0,16)"><path class="background" aria-hidden="true" d="M0,0h0v0h0Z" pointer-events="none"/><g><g class="mark-group role-scope" role="graphics-object" aria-roledescription="group mark container"><g transform="translate(0,0)"><path class="background" aria-hidden="true" d="M0,0h21.56666660308838v11h-21.56666660308838Z" pointer-events="none" opacity="1"/><g><g class="mark-symbol role-legend-symbol" pointer-events="none"><path transform="translate(6,6)" d="M-5,0L5,0" stroke="#4c78a8" stroke-width="1.5" opacity="0.7"/></g><g class="mark-text role-legend-label" pointer-events="none"><text text-anchor="start" transform="translate(16,9)" font-family="sans-serif" font-size="10px" fill="#000" opacity="1">0</text></g></g><path class="foreground" aria-hidden="true" d="" pointer-events="none" display="none"/></g><g transform="translate(0,13)"><path class="background" aria-hidden="true" d="M0,0h21.56666660308838v11h-21.56666660308838Z" pointer-events="none" opacity="1"/><g><g class="mark-symbol role-legend-symbol" pointer-events="none"><path transform="translate(6,6)" d="M-5,0L5,0" stroke="#f58518" stroke-width="1.5" opacity="0.7"/></g><g class="mark-text role-legend-label" pointer-events="none"><text text-anchor="start" transform="translate(16,9)" font-family="sans-serif" font-size="10px" fill="#000" opacity="1">1</text></g></g><path class="foreground" aria-hidden="true" d="" pointer-events="none" display="none"/></g></g></g><path class="foreground" aria-hidden="true" d="" pointer-events="none" display="none"/></g></g><g class="mark-text role-legend-title" pointer-events="none"><text text-anchor="start" transform="translate(0,9)" font-family="sans-serif" font-size="11px" font-weight="bold" fill="#000" opacity="1">label</text></g></g><path class="foreground" aria-hidden="true" d="" pointer-events="none" display="none"/></g></g><g class="mark-group role-title"><g transform="translate(300,-22)"><path class="background" aria-hidden="true" d="M0,0h0v0h0Z" pointer-events="none"/><g><g class="mark-text role-title-text" role="graphics-symbol" aria-roledescription="title" aria-label="Title text 'Sensitivity Distribution by Label'" pointer-events="none"><text text-anchor="middle" transform="translate(0,10)" font-family="sans-serif" font-size="13px" font-weight="bold" fill="#000" opacity="1">Sensitivity Distribution by Label</text></g></g><path class="foreground" aria-hidden="true" d="" pointer-events="none" display="none"/></g></g></g><path class="foreground" aria-hidden="true" d="" display="none"/></g></g></g></svg>