<svg xmlns="http://www.w3.org/2000/svg" xmlns:xlink="http://www.w3.org/1999/xlink" version="1.1" class="marks" width="688" height="364" viewBox="0 0 688 364"><rect width="688" height="364" fill="white"/><g fill="none" stroke-miterlimit="10" transform="translate(39,27)"><g class="mark-group role-frame root" role="graphics-object" aria-roledescription="group mark container"><g transform="translate(0,0)"><path class="background" aria-hidden="true" d="M0.5,0.5h600v300h-600Z" stroke="#ddd"/><g><g class="mark-group role-axis" aria-hidden="true"><g transform="translate(0.5,300.5)"><path class="background" aria-hidden="true" d="M0,0h0v0h0Z" pointer-events="none"/><g><g class="mark-rule role-axis-grid" pointer-events="none"><line transform="translate(0,-300)" x2="0" y2="300" stroke="#ddd" stroke-width="1" opacity="1"/><line transform="translate(55,-300)" x2="0" y2="300" stroke="#ddd" stroke-width="1" opacity="1"/><line transform="translate(109,-300)" x2="0" y2="300" stroke="#ddd" stroke-width="1" opacity="1"/><line transform="translate(164,-300)" x2="0" y2="300" stroke="#ddd" stroke-width="1" opacity="1"/><line transform="translate(218,-300)" x2="0" y2="300" stroke="#ddd" stroke-width="1" opacity="1"/><line transform="translate(273,-300)" x2="0" y2="300" stroke="#ddd" stroke-width="1" opacity="1"/><line transform="translate(327,-300)" x2="0" y2="300" stroke="#ddd" stroke-width="1" opacity="1"/><line transform="translate(382,-300)" x2="0" y2="300" stroke="#ddd" stroke-width="1" opacity="1"/><line transform="translate(436,-300)" x2="0" y2="300" stroke="#ddd" stroke-width="1" opacity="1"/><line transform="translate(491,-300)" x2="0" y2="300" stroke="#ddd" stroke-width="1" opacity="1"/><line transform="translate(545,-300)" x2="0" y2="300" stroke="#ddd" stroke-width="1" opacity="1"/><line transform="translate(600,-300)" x2="0" y2="300" stroke="#ddd" stroke-width="1" opacity="1"/></g></g><path class="foreground" aria-hidden="true" d="" pointer-events="none" display="none"/></g></g><g class="mark-group role-axis" aria-hidden="true"><g transform="translate(0.5,0.5)"><path class="background" aria-hidden="true" d="M0,0h0v0h0Z" pointer-events="none"/><g><g class="mark-rule role-axis-grid" pointer-events="none"><line transform="translate(0,300)" x2="600" y2="0" stroke="#ddd" stroke-width="1" opacity="1"/><line transform="translate(0,273)" x2="600" y2="0" stroke="#ddd" stroke-width="1" opacity="1"/><line transform="translate(0,245)" x2="600" y2="0" stroke="#ddd" stroke-width="1" opacity="1"/><line transform="translate(0,218)" x2="600" y2="0" stroke="#ddd" stroke-width="1" opacity="1"/><line transform="translate(0,191)" x2="600" y2="0" stroke="#ddd" stroke-width="1" opacity="1"/><line transform="translate(0,164)" x2="600" y2="0" stroke="#ddd" stroke-width="1" opacity="1"/><line transform="translate(0,136)" x2="600" y2="0" stroke="#ddd" stroke-width="1" opacity="1"/><line transform="translate(0,109)" x2="600" y2="0" stroke="#ddd" stroke-width="1" opacity="1"/><line transform="translate(0,82)" x2="600" y2="0" stroke="#ddd" stroke-width="1" opacity="1"/><line transform="translate(0,55)" x2="600" y2="0" stroke="#ddd" stroke-width="1" opacity="1"/><line transform="translate(0,27)" x2="600" y2="0" stroke="#ddd" stroke-width="1" opacity="1"/><line transform="translate(0,0)" x2="600" y2="0" stroke="#ddd" stroke-width="1" opacity="1"/></g></g><path class="foreground" aria-hidden="true" d="" pointer-events="none" display="none"/></g></g><g class="mark-group role-axis" role="graphics-symbol" aria-roledescription="axis" aria-label="X-axis titled 'Cosine Similarity' for a linear scale with values from 0.94 to 0.99"><g transform="translate(0.5,300.5)"><path class="background" aria-hidden="true" d="M0,0h0v0h0Z" pointer-events="none"/><g><g class="mark-rule role-axis-tick" pointer-events="none"><line transform="translate(0,0)" x2="0" y2="5" stroke="#888" stroke-width="1" opacity="1"/><line transform="translate(55,0)" x2="0" y2="5" stroke="#888" stroke-width="1" opacity="1"/><line transform="translate(109,0)" x2="0" y2="5" stroke="#888" stroke-width="1" opacity="1"/><line transform="translate(164,0)" x2="0" y2="5" stroke="#888" stroke-width="1" opacity="1"/><line transform="translate(218,0)" x2="0" y2="5" stroke="#888" stroke-width="1" opacity="1"/><line transform="translate(273,0)" x2="0" y2="5" stroke="#888" stroke-width="1" opacity="1"/><line transform="translate(327,0)" x2="0" y2="5" stroke="#888" stroke-width="1" opacity="1"/><line transform="translate(382,0)" x2="0" y2="5" stroke="#888" stroke-width="1" opacity="1"/><line transform="translate(436,0)" x2="0" y2="5" stroke="#888" stroke-width="1" opacity="1"/><line transform="translate(491,0)" x2="0" y2="5" stroke="#888" stroke-width="1" opacity="1"/><line transform="translate(545,0)" x2="0" y2="5" stroke="#888" stroke-width="1" opacity="1"/><line transform="translate(600,0)" x2="0" y2="5" stroke="#888" stroke-width="1" opacity="1"/></g><g class="mark-text role-axis-label" pointer-events="none"><text text-anchor="start" transform="translate(0,15)" font-family="sans-serif" font-size="10px" fill="#000" opacity="1">0.940</text><text text-anchor="middle" transform="translate(54.54545454545455,15)" font-family="sans-serif" font-size="10px" fill="#000" opacity="1">0.945</text><text text-anchor="middle" transform="translate(109.0909090909091,15)" font-family="sans-serif" font-size="10px" fill="#000" opacity="1">0.950</text><text text-anchor="middle" transform="translate(163.63636363636363,15)" font-family="sans-serif" font-size="10px" fill="#000" opacity="1">0.955</text><text text-anchor="middle" transform="translate(218.1818181818182,15)" font-family="sans-serif" font-size="10px" fill="#000" opacity="1">0.960</text><text text-anchor="middle" transform="translate(272.7272727272727,15)" font-family="sans-serif" font-size="10px" fill="#000" opacity="1">0.965</text><text text-anchor="middle" transform="translate(327.27272727272725,15)" font-family="sans-serif" font-size="10px" fill="#000" opacity="1">0.970</text><text text-anchor="middle" transform="translate(381.8181818181818,15)" font-family="sans-serif" font-size="10px" fill="#000" opacity="1">0.975</text><text text-anchor="middle" transform="translate(436.3636363636364,15)" font-family="sans-serif" font-size="10px" fill="#000" opacity="1">0.980</text><text text-anchor="middle" transform="translate(490.90909090909093,15)" font-family="sans-serif" font-size="10px" fill="#000" opacity="1">0.985</text><text text-anchor="middle" transform="translate(545.4545454545454,15)" font-family="sans-serif" font-size="10px" fill="#000" opacity="1">0.990</text><text text-anchor="end" transform="translate(600,15)" font-family="sans-serif" font-size="10px" fill="#000" opacity="1">0.995</text></g><g class="mark-rule role-axis-domain" pointer-events="none"><line transform="translate(0,0)" x2="600" y2="0" stroke="#888" stroke-width="1" opacity="1"/></g><g class="mark-text role-axis-title" pointer-events="none"><text text-anchor="middle" transform="translate(300,30)" font-family="sans-serif" font-size="11px" font-weight="bold" fill="#000" opacity="1">Cosine Similarity</text></g></g><path class="foreground" aria-hidden="true" d="" pointer-events="none" display="none"/></g></g><g class="mark-group role-axis" role="graphics-symbol" aria-roledescription="axis" aria-label="Y-axis titled 'Density' for a linear scale with values from 0 to 55"><g transform="translate(0.5,0.5)"><path class="background" aria-hidden="true" d="M0,0h0v0h0Z" pointer-events="none"/><g><g class="mark-rule role-axis-tick" pointer-events="none"><line transform="translate(0,300)" x2="-5" y2="0" stroke="#888" stroke-width="1" opacity="1"/><line transform="translate(0,273)" x2="-5" y2="0" stroke="#888" stroke-width="1" opacity="1"/><line transform="translate(0,245)" x2="-5" y2="0" stroke="#888" stroke-width="1" opacity="1"/><line transform="translate(0,218)" x2="-5" y2="0" stroke="#888" stroke-width="1" opacity="1"/><line transform="translate(0,191)" x2="-5" y2="0" stroke="#888" stroke-width="1" opacity="1"/><line transform="translate(0,164)" x2="-5" y2="0" stroke="#888" stroke-width="1" opacity="1"/><line transform="translate(0,136)" x2="-5" y2="0" stroke="#888" stroke-width="1" opacity="1"/><line transform="translate(0,109)" x2="-5" y2="0" stroke="#888" stroke-width="1" opacity="1"/><line transform="translate(0,82)" x2="-5" y2="0" stroke="#888" stroke-width="1" opacity="1"/><line transform="translate(0,55)" x2="-5" y2="0" stroke="#888" stroke-width="1" opacity="1"/><line transform="translate(0,27)" x2="-5" y2="0" stroke="#888" stroke-width="1" opacity="1"/><line transform="translate(0,0)" x2="-5" y2="0" stroke="#888" stroke-width="1" opacity="1"/></g><g class="mark-text role-axis-label" pointer-events="none"><text text-anchor="end" transform="translate(-7,303)" font-family="sans-serif" font-size="10px" fill="#000" opacity="1">0</text><text text-anchor="end" transform="translate(-7,275.7272727272727)" font-family="sans-serif" font-size="10px" fill="#000" opacity="1">5</text><text text-anchor="end" transform="translate(-7,248.45454545454544)" font-family="sans-serif" font-size="10px" fill="#000" opacity="1">10</text><text text-anchor="end" transform="translate(-7,221.1818181818182)" font-family="sans-serif" font-size="10px" fill="#000" opacity="1">15</text><text text-anchor="end" transform="translate(-7,193.9090909090909)" font-family="sans-serif" font-size="10px" fill="#000" opacity="1">20</text><text text-anchor="end" transform="translate(-7,166.63636363636363)" font-family="sans-serif" font-size="10px" fill="#000" opacity="1">25</text><text text-anchor="end" transform="translate(-7,139.36363636363637)" font-family="sans-serif" font-size="10px" fill="#000" opacity="1">30</text><text text-anchor="end" transform="translate(-7,112.0909090909091)" font-family="sans-serif" font-size="10px" fill="#000" opacity="1">35</text><text text-anchor="end" transform="translate(-7,84.81818181818181)" font-family="sans-serif" font-size="10px" fill="#000" opacity="1">40</text><text text-anchor="end" transform="translate(-7,57.54545454545453)" font-family="sans-serif" font-size="10px" fill="#000" opacity="1">45</text><text text-anchor="end" transform="translate(-7,30.27272727272728)" font-family="sans-serif" font-size="10px" fill="#000" opacity="1">50</text><text text-anchor="end" transform="translate(-7,3)" font-family="sans-serif" font-size="10px" fill="#000" opacity="1">55</text></g><g class="mark-rule role-axis-domain" pointer-events="none"><line transform="translate(0,300)" x2="0" y2="-300" stroke="#888" stroke-width="1" opacity="1"/></g><g class="mark-text role-axis-title" pointer-events="none"><text text-anchor="middle" transform="translate(-22.133333206176758,150) rotate(-90) translate(0,-2)" font-family="sans-serif" font-size="11px" font-weight="bold" fill="#000" opacity="1">Density</text></g></g><path class="foreground" aria-hidden="true" d="" pointer-events="none" display="none"/></g></g><g class="mark-group role-scope pathgroup" role="graphics-object" aria-roledescription="group mark container"><g transform="translate(0,0)"><path class="background" aria-hidden="true" d="M0,0h600v300h-600Z"/><g><g class="mark-line role-mark marks" role="graphics-object" aria-roledescription="line mark container"><path aria-label="Cosine Similarity: 0.941529750824; Density: 2.60601560886; label: 0" role="graphics-symbol" aria-roledescription="line mark" d="M16.688,285.785L19.568,285.411L22.447,285.195L25.327,285.145L28.207,285.262L31.086,285.54L33.966,285.969L36.845,286.532L39.725,287.209L42.604,287.975L45.484,288.804L48.364,289.667L51.243,290.535L54.123,291.379L57.002,292.174L59.882,292.892L62.761,293.513L65.641,294.017L68.521,294.386L71.4,294.608L74.28,294.671L77.159,294.569L80.039,294.296L82.918,293.85L85.798,293.231L88.678,292.443L91.557,291.49L94.437,290.38L97.316,289.124L100.196,287.732L103.076,286.219L105.955,284.601L108.835,282.894L111.714,281.116L114.594,279.286L117.473,277.424L120.353,275.55L123.233,273.683L126.112,271.842L128.992,270.047L131.871,268.314L134.751,266.662L137.63,265.105L140.51,263.655L143.39,262.325L146.269,261.121L149.149,260.048L152.028,259.107L154.908,258.294L157.787,257.601L160.667,257.016L163.547,256.523L166.426,256.103L169.306,255.732L172.185,255.387L175.065,255.042L177.945,254.671L180.824,254.248L183.704,253.747L186.583,253.145L189.463,252.417L192.342,251.541L195.222,250.491L198.102,249.243L200.981,247.769L203.861,246.041L206.74,244.027L209.62,241.694L212.499,239.007L215.379,235.933L218.259,232.438L221.138,228.493L224.018,224.077L226.897,219.175L229.777,213.781L232.656,207.902L235.536,201.557L238.416,194.777L241.295,187.603L244.175,180.089L247.054,172.297L249.934,164.296L252.814,156.16L255.693,147.962L258.573,139.779L261.452,131.68L264.332,123.734L267.211,115.999L270.091,108.531L272.971,101.372L275.85,94.563L278.73,88.131L281.609,82.101L284.489,76.49L287.368,71.311L290.248,66.572L293.128,62.279L296.007,58.436L298.887,55.046L301.766,52.109L304.646,49.626L307.526,47.597L310.405,46.018L313.285,44.888L316.164,44.199L319.044,43.945L321.923,44.114L324.803,44.694L327.683,45.67L330.562,47.026L333.442,48.743L336.321,50.804L339.201,53.189L342.08,55.881L344.96,58.861L347.84,62.109L350.719,65.605L353.599,69.328L356.478,73.25L359.358,77.34L362.237,81.561L365.117,85.87L367.997,90.215L370.876,94.541L373.756,98.787L376.635,102.891L379.515,106.794L382.395,110.441L385.274,113.788L388.154,116.803L391.033,119.475L393.913,121.808L396.792,123.831L399.672,125.594L402.552,127.165L405.431,128.63L408.311,130.089L411.19,131.649L414.07,133.419L416.949,135.504L419.829,137.998L422.709,140.981L425.588,144.513L428.468,148.631L431.347,153.347L434.227,158.647L437.106,164.493L439.986,170.825L442.866,177.563L445.745,184.611L448.625,191.861L451.504,199.197L454.384,206.501L457.264,213.655L460.143,220.545L463.023,227.064L465.902,233.116L468.782,238.616L471.661,243.494L474.541,247.695L477.421,251.179L480.3,253.923L483.18,255.924L486.059,257.193L488.939,257.759L491.818,257.669L494.698,256.982L497.578,255.774L500.457,254.129L503.337,252.141L506.216,249.907L509.096,247.527L511.975,245.098L514.855,242.711L517.735,240.444L520.614,238.365L523.494,236.525L526.373,234.955L529.253,233.672L532.133,232.672L535.012,231.938L537.892,231.438L540.771,231.132L543.651,230.974L546.53,230.918L549.41,230.923L552.29,230.953L555.169,230.986L558.049,231.012L560.928,231.036L563.808,231.077L566.687,231.167L569.567,231.349L572.447,231.673L575.326,232.191L578.206,232.955L581.085,234.011L583.965,235.395L586.845,237.133L589.724,239.234L592.604,241.693" stroke="#4c78a8" stroke-width="2" opacity="0.7"/></g></g><path class="foreground" aria-hidden="true" d="" display="none"/></g><g transform="translate(0,0)"><path class="background" aria-hidden="true" d="M0,0h600v300h-600Z"/><g><g class="mark-line role-mark marks" role="graphics-object" aria-roledescription="line mark container"><path aria-label="Cosine Similarity: 0.941529750824; Density: 2.02248333487; label: 1" role="graphics-symbol" aria-roledescription="line mark" d="M16.688,288.968L19.568,289.044L22.447,289.267L25.327,289.628L28.207,290.114L31.086,290.705L33.966,291.38L36.845,292.113L39.725,292.88L42.604,293.657L45.484,294.422L48.364,295.155L51.243,295.84L54.123,296.462L57.002,297.012L59.882,297.483L62.761,297.87L65.641,298.17L68.521,298.382L71.4,298.505L74.28,298.54L77.159,298.486L80.039,298.343L82.918,298.112L85.798,297.793L88.678,297.387L91.557,296.898L94.437,296.331L97.316,295.694L100.196,294.997L103.076,294.255L105.955,293.483L108.835,292.704L111.714,291.938L114.594,291.21L117.473,290.542L120.353,289.959L123.233,289.479L126.112,289.119L128.992,288.887L131.871,288.788L134.751,288.819L137.63,288.967L140.51,289.215L143.39,289.537L146.269,289.901L149.149,290.272L152.028,290.609L154.908,290.87L157.787,291.016L160.667,291.003L163.547,290.795L166.426,290.357L169.306,289.658L172.185,288.673L175.065,287.384L177.945,285.775L180.824,283.839L183.704,281.573L186.583,278.978L189.463,276.059L192.342,272.827L195.222,269.295L198.102,265.479L200.981,261.398L203.861,257.075L206.74,252.535L209.62,247.81L212.499,242.933L215.379,237.944L218.259,232.888L221.138,227.815L224.018,222.78L226.897,217.838L229.777,213.046L232.656,208.459L235.536,204.127L238.416,200.09L241.295,196.38L244.175,193.013L247.054,189.996L249.934,187.318L252.814,184.96L255.693,182.893L258.573,181.082L261.452,179.493L264.332,178.093L267.211,176.859L270.091,175.772L272.971,174.827L275.85,174.028L278.73,173.385L281.609,172.913L284.489,172.625L287.368,172.533L290.248,172.636L293.128,172.921L296.007,173.359L298.887,173.904L301.766,174.493L304.646,175.046L307.526,175.472L310.405,175.668L313.285,175.53L316.164,174.95L319.044,173.827L321.923,172.066L324.803,169.588L327.683,166.328L330.562,162.24L333.442,157.302L336.321,151.514L339.201,144.903L342.08,137.521L344.96,129.445L347.84,120.781L350.719,111.656L353.599,102.217L356.478,92.629L359.358,83.067L362.237,73.712L365.117,64.741L367.997,56.323L370.876,48.611L373.756,41.731L376.635,35.785L379.515,30.838L382.395,26.925L385.274,24.045L388.154,22.164L391.033,21.225L393.913,21.146L396.792,21.831L399.672,23.18L402.552,25.091L405.431,27.468L408.311,30.229L411.19,33.304L414.07,36.645L416.949,40.218L419.829,44.005L422.709,48.005L425.588,52.224L428.468,56.676L431.347,61.378L434.227,66.344L437.106,71.585L439.986,77.103L442.866,82.893L445.745,88.938L448.625,95.209L451.504,101.667L454.384,108.259L457.264,114.926L460.143,121.596L463.023,128.194L465.902,134.639L468.782,140.85L471.661,146.75L474.541,152.271L477.421,157.355L480.3,161.959L483.18,166.061L486.059,169.657L488.939,172.767L491.818,175.431L494.698,177.705L497.578,179.661L500.457,181.38L503.337,182.947L506.216,184.443L509.096,185.941L511.975,187.502L514.855,189.171L517.735,190.974L520.614,192.92L523.494,195.003L526.373,197.204L529.253,199.497L532.133,201.852L535.012,204.242L537.892,206.647L540.771,209.055L543.651,211.469L546.53,213.903L549.41,216.381L552.29,218.938L555.169,221.613L558.049,224.446L560.928,227.472L563.808,230.719L566.687,234.201L569.567,237.919L572.447,241.858L575.326,245.987L578.206,250.26L581.085,254.622L583.965,259.008L586.845,263.352L589.724,267.586L592.604,271.647" stroke="#f58518" stroke-width="2" opacity="0.7"/></g></g><path class="foreground" aria-hidden="true" d="" display="none"/></g></g><g class="mark-group role-legend" role="graphics-symbol" aria-roledescription="legend" aria-label="Symbol legend titled 'label' for stroke color with 2 values: 0, 1"><g transform="translate(618,0)"><path class="background" aria-hidden="true" d="M0,0h26v40h-26Z" pointer-events="none"/><g><g class="mark-group role-legend-entry"><g transform="translate(0,16)"><path class="background" aria-hidden="true" d="M0,0h0v0h0Z" pointer-events="none"/><g><g class="mark-group role-scope" role="graphics-object" aria-roledescription="group mark container"><g transform="translate(0,0)"><path class="background" aria-hidden="true" d="M0,0h21.56666660308838v11h-21.56666660308838Z" pointer-events="none" opacity="1"/><g><g class="mark-symbol role-legend-symbol" pointer-events="none"><path transform="translate(6,6)" d="M-5,0L5,0" stroke="#4c78a8" stroke-width="1.5" opacity="0.7"/></g><g class="mark-text role-legend-label" pointer-events="none"><text text-anchor="start" transform="translate(16,9)" font-family="sans-serif" font-size="10px" fill="#000" opacity="1">0</text></g></g><path class="foreground" aria-hidden="true" d="" pointer-events="none" display="none"/></g><g transform="translate(0,13)"><path class="background" aria-hidden="true" d="M0,0h21.56666660308838v11h-21.56666660308838Z" pointer-events="none" opacity="1"/><g><g class="mark-symbol role-legend-symbol" pointer-events="none"><path transform="translate(6,6)" d="M-5,0L5,0" stroke="#f58518" stroke-width="1.5" opacity="0.7"/></g><g class="mark-text role-legend-label" pointer-events="none"><text text-anchor="start" transform="translate(16,9)" font-family="sans-serif" font-size="10px" fill="#000" opacity="1">1</text></g></g><path class="foreground" aria-hidden="true" d="" pointer-events="none" display="none"/></g></g></g><path class="foreground" aria-hidden="true" d="" pointer-events="none" display="none"/></g></g><g class="mark-text role-legend-title" pointer-events="none"><text text-anchor="start" transform="translate(0,9)" font-family="sans-serif" font-size="11px" font-weight="bold" fill="#000" opacity="1">label</text></g></g><path class="foreground" aria-hidden="true" d="" pointer-events="none" display="none"/></g></g><g class="mark-group role-title"><g transform="translate(300,-22)"><path class="background" aria-hidden="true" d="M0,0h0v0h0Z" pointer-events="none"/><g><g class="mark-text role-title-text" role="graphics-symbol" aria-roledescription="title" aria-label="Title text 'Sensitivity by Label&#xA;Model: nvidia/C-RADIOv4-SO400M'" pointer-events="none"><text text-anchor="middle" transform="translate(0,10)" font-family="sans-serif" font-size="13px" font-weight="bold" fill="#000" opacity="1">Sensitivity by Label
Model: nvidia/C-RADIOv4-SO400M</text></g></g><path class="foreground" aria-hidden="true" d="" pointer-events="none" display="none"/></g></g></g><path class="foreground" aria-hidden="true" d="" display="none"/></g></g></g></svg>