<svg xmlns="http://www.w3.org/2000/svg" xmlns:xlink="http://www.w3.org/1999/xlink" version="1.1" class="marks" width="645" height="364" viewBox="0 0 645 364"><rect width="645" height="364" fill="white"/><g fill="none" stroke-miterlimit="10" transform="translate(39,27)"><g class="mark-group role-frame root" role="graphics-object" aria-roledescription="group mark container"><g transform="translate(0,0)"><path class="background" aria-hidden="true" d="M0.5,0.5h600v300h-600Z" stroke="#ddd"/><g><g class="mark-group role-axis" aria-hidden="true"><g transform="translate(0.5,300.5)"><path class="background" aria-hidden="true" d="M0,0h0v0h0Z" pointer-events="none"/><g><g class="mark-rule role-axis-grid" pointer-events="none"><line transform="translate(0,-300)" x2="0" y2="300" stroke="#ddd" stroke-width="1" opacity="1"/><line transform="translate(33,-300)" x2="0" y2="300" stroke="#ddd" stroke-width="1" opacity="1"/><line transform="translate(67,-300)" x2="0" y2="300" stroke="#ddd" stroke-width="1" opacity="1"/><line transform="translate(100,-300)" x2="0" y2="300" stroke="#ddd" stroke-width="1" opacity="1"/><line transform="translate(133,-300)" x2="0" y2="300" stroke="#ddd" stroke-width="1" opacity="1"/><line transform="translate(167,-300)" x2="0" y2="300" stroke="#ddd" stroke-width="1" opacity="1"/><line transform="translate(200,-300)" x2="0" y2="300" stroke="#ddd" stroke-width="1" opacity="1"/><line transform="translate(233,-300)" x2="0" y2="300" stroke="#ddd" stroke-width="1" opacity="1"/><line transform="translate(267,-300)" x2="0" y2="300" stroke="#ddd" stroke-width="1" opacity="1"/><line transform="translate(300,-300)" x2="0" y2="300" stroke="#ddd" stroke-width="1" opacity="1"/><line transform="translate(333,-300)" x2="0" y2="300" stroke="#ddd" stroke-width="1" opacity="1"/><line transform="translate(367,-300)" x2="0" y2="300" stroke="#ddd" stroke-width="1" opacity="1"/><line transform="translate(400,-300)" x2="0" y2="300" stroke="#ddd" stroke-width="1" opacity="1"/><line transform="translate(433,-300)" x2="0" y2="300" stroke="#ddd" stroke-width="1" opacity="1"/><line transform="translate(467,-300)" x2="0" y2="300" stroke="#ddd" stroke-width="1" opacity="1"/><line transform="translate(500,-300)" x2="0" y2="300" stroke="#ddd" stroke-width="1" opacity="1"/><line transform="translate(533,-300)" x2="0" y2="300" stroke="#ddd" stroke-width="1" opacity="1"/><line transform="translate(567,-300)" x2="0" y2="300" stroke="#ddd" stroke-width="1" opacity="1"/><line transform="translate(600,-300)" x2="0" y2="300" stroke="#ddd" stroke-width="1" opacity="1"/></g></g><path class="foreground" aria-hidden="true" d="" pointer-events="none" display="none"/></g></g><g class="mark-group role-axis" aria-hidden="true"><g transform="translate(0.5,0.5)"><path class="background" aria-hidden="true" d="M0,0h0v0h0Z" pointer-events="none"/><g><g class="mark-rule role-axis-grid" pointer-events="none"><line transform="translate(0,300)" x2="600" y2="0" stroke="#ddd" stroke-width="1" opacity="1"/><line transform="translate(0,267)" x2="600" y2="0" stroke="#ddd" stroke-width="1" opacity="1"/><line transform="translate(0,233)" x2="600" y2="0" stroke="#ddd" stroke-width="1" opacity="1"/><line transform="translate(0,200)" x2="600" y2="0" stroke="#ddd" stroke-width="1" opacity="1"/><line transform="translate(0,167)" x2="600" y2="0" stroke="#ddd" stroke-width="1" opacity="1"/><line transform="translate(0,133)" x2="600" y2="0" stroke="#ddd" stroke-width="1" opacity="1"/><line transform="translate(0,100)" x2="600" y2="0" stroke="#ddd" stroke-width="1" opacity="1"/><line transform="translate(0,67)" x2="600" y2="0" stroke="#ddd" stroke-width="1" opacity="1"/><line transform="translate(0,33)" x2="600" y2="0" stroke="#ddd" stroke-width="1" opacity="1"/><line transform="translate(0,0)" x2="600" y2="0" stroke="#ddd" stroke-width="1" opacity="1"/></g></g><path class="foreground" aria-hidden="true" d="" pointer-events="none" display="none"/></g></g><g class="mark-group role-axis" role="graphics-symbol" aria-roledescription="axis" aria-label="X-axis titled 'Cosine Similarity' for a linear scale with values from 0.86 to 0.95"><g transform="translate(0.5,300.5)"><path class="background" aria-hidden="true" d="M0,0h0v0h0Z" pointer-events="none"/><g><g class="mark-rule role-axis-tick" pointer-events="none"><line transform="translate(0,0)" x2="0" y2="5" stroke="#888" stroke-width="1" opacity="1"/><line transform="translate(33,0)" x2="0" y2="5" stroke="#888" stroke-width="1" opacity="1"/><line transform="translate(67,0)" x2="0" y2="5" stroke="#888" stroke-width="1" opacity="1"/><line transform="translate(100,0)" x2="0" y2="5" stroke="#888" stroke-width="1" opacity="1"/><line transform="translate(133,0)" x2="0" y2="5" stroke="#888" stroke-width="1" opacity="1"/><line transform="translate(167,0)" x2="0" y2="5" stroke="#888" stroke-width="1" opacity="1"/><line transform="translate(200,0)" x2="0" y2="5" stroke="#888" stroke-width="1" opacity="1"/><line transform="translate(233,0)" x2="0" y2="5" stroke="#888" stroke-width="1" opacity="1"/><line transform="translate(267,0)" x2="0" y2="5" stroke="#888" stroke-width="1" opacity="1"/><line transform="translate(300,0)" x2="0" y2="5" stroke="#888" stroke-width="1" opacity="1"/><line transform="translate(333,0)" x2="0" y2="5" stroke="#888" stroke-width="1" opacity="1"/><line transform="translate(367,0)" x2="0" y2="5" stroke="#888" stroke-width="1" opacity="1"/><line transform="translate(400,0)" x2="0" y2="5" stroke="#888" stroke-width="1" opacity="1"/><line transform="translate(433,0)" x2="0" y2="5" stroke="#888" stroke-width="1" opacity="1"/><line transform="translate(467,0)" x2="0" y2="5" stroke="#888" stroke-width="1" opacity="1"/><line transform="translate(500,0)" x2="0" y2="5" stroke="#888" stroke-width="1" opacity="1"/><line transform="translate(533,0)" x2="0" y2="5" stroke="#888" stroke-width="1" opacity="1"/><line transform="translate(567,0)" x2="0" y2="5" stroke="#888" stroke-width="1" opacity="1"/><line transform="translate(600,0)" x2="0" y2="5" stroke="#888" stroke-width="1" opacity="1"/></g><g class="mark-text role-axis-label" pointer-events="none"><text text-anchor="start" transform="translate(0,15)" font-family="sans-serif" font-size="10px" fill="#000" opacity="1">0.860</text><text text-anchor="middle" transform="translate(33.33333333333337,15)" font-family="sans-serif" font-size="10px" fill="#000" opacity="0">0.865</text><text text-anchor="middle" transform="translate(66.66666666666674,15)" font-family="sans-serif" font-size="10px" fill="#000" opacity="1">0.870</text><text text-anchor="middle" transform="translate(100.00000000000013,15)" font-family="sans-serif" font-size="10px" fill="#000" opacity="0">0.875</text><text text-anchor="middle" transform="translate(133.33333333333348,15)" font-family="sans-serif" font-size="10px" fill="#000" opacity="1">0.880</text><text text-anchor="middle" transform="translate(166.66666666666688,15)" font-family="sans-serif" font-size="10px" fill="#000" opacity="0">0.885</text><text text-anchor="middle" transform="translate(200.00000000000026,15)" font-family="sans-serif" font-size="10px" fill="#000" opacity="1">0.890</text><text text-anchor="middle" transform="translate(233.33333333333363,15)" font-family="sans-serif" font-size="10px" fill="#000" opacity="0">0.895</text><text text-anchor="middle" transform="translate(266.66666666666697,15)" font-family="sans-serif" font-size="10px" fill="#000" opacity="1">0.900</text><text text-anchor="middle" transform="translate(300.0000000000004,15)" font-family="sans-serif" font-size="10px" fill="#000" opacity="0">0.905</text><text text-anchor="middle" transform="translate(333.33333333333377,15)" font-family="sans-serif" font-size="10px" fill="#000" opacity="1">0.910</text><text text-anchor="middle" transform="translate(366.6666666666671,15)" font-family="sans-serif" font-size="10px" fill="#000" opacity="0">0.915</text><text text-anchor="middle" transform="translate(400.0000000000005,15)" font-family="sans-serif" font-size="10px" fill="#000" opacity="1">0.920</text><text text-anchor="middle" transform="translate(433.3333333333339,15)" font-family="sans-serif" font-size="10px" fill="#000" opacity="0">0.925</text><text text-anchor="middle" transform="translate(466.66666666666725,15)" font-family="sans-serif" font-size="10px" fill="#000" opacity="1">0.930</text><text text-anchor="middle" transform="translate(500.0000000000006,15)" font-family="sans-serif" font-size="10px" fill="#000" opacity="0">0.935</text><text text-anchor="middle" transform="translate(533.3333333333333,15)" font-family="sans-serif" font-size="10px" fill="#000" opacity="1">0.940</text><text text-anchor="middle" transform="translate(566.6666666666666,15)" font-family="sans-serif" font-size="10px" fill="#000" opacity="0">0.945</text><text text-anchor="end" transform="translate(600,15)" font-family="sans-serif" font-size="10px" fill="#000" opacity="1">0.950</text></g><g class="mark-rule role-axis-domain" pointer-events="none"><line transform="translate(0,0)" x2="600" y2="0" stroke="#888" stroke-width="1" opacity="1"/></g><g class="mark-text role-axis-title" pointer-events="none"><text text-anchor="middle" transform="translate(300,30)" font-family="sans-serif" font-size="11px" font-weight="bold" fill="#000" opacity="1">Cosine Similarity</text></g></g><path class="foreground" aria-hidden="true" d="" pointer-events="none" display="none"/></g></g><g class="mark-group role-axis" role="graphics-symbol" aria-roledescription="axis" aria-label="Y-axis titled 'Density' for a linear scale with values from 0 to 45"><g transform="translate(0.5,0.5)"><path class="background" aria-hidden="true" d="M0,0h0v0h0Z" pointer-events="none"/><g><g class="mark-rule role-axis-tick" pointer-events="none"><line transform="translate(0,300)" x2="-5" y2="0" stroke="#888" stroke-width="1" opacity="1"/><line transform="translate(0,267)" x2="-5" y2="0" stroke="#888" stroke-width="1" opacity="1"/><line transform="translate(0,233)" x2="-5" y2="0" stroke="#888" stroke-width="1" opacity="1"/><line transform="translate(0,200)" x2="-5" y2="0" stroke="#888" stroke-width="1" opacity="1"/><line transform="translate(0,167)" x2="-5" y2="0" stroke="#888" stroke-width="1" opacity="1"/><line transform="translate(0,133)" x2="-5" y2="0" stroke="#888" stroke-width="1" opacity="1"/><line transform="translate(0,100)" x2="-5" y2="0" stroke="#888" stroke-width="1" opacity="1"/><line transform="translate(0,67)" x2="-5" y2="0" stroke="#888" stroke-width="1" opacity="1"/><line transform="translate(0,33)" x2="-5" y2="0" stroke="#888" stroke-width="1" opacity="1"/><line transform="translate(0,0)" x2="-5" y2="0" stroke="#888" stroke-width="1" opacity="1"/></g><g class="mark-text role-axis-label" pointer-events="none"><text text-anchor="end" transform="translate(-7,303)" font-family="sans-serif" font-size="10px" fill="#000" opacity="1">0</text><text text-anchor="end" transform="translate(-7,269.66666666666663)" font-family="sans-serif" font-size="10px" fill="#000" opacity="1">5</text><text text-anchor="end" transform="translate(-7,236.33333333333334)" font-family="sans-serif" font-size="10px" fill="#000" opacity="1">10</text><text text-anchor="end" transform="translate(-7,203.00000000000003)" font-family="sans-serif" font-size="10px" fill="#000" opacity="1">15</text><text text-anchor="end" transform="translate(-7,169.66666666666669)" font-family="sans-serif" font-size="10px" fill="#000" opacity="1">20</text><text text-anchor="end" transform="translate(-7,136.33333333333331)" font-family="sans-serif" font-size="10px" fill="#000" opacity="1">25</text><text text-anchor="end" transform="translate(-7,103.00000000000001)" font-family="sans-serif" font-size="10px" fill="#000" opacity="1">30</text><text text-anchor="end" transform="translate(-7,69.66666666666666)" font-family="sans-serif" font-size="10px" fill="#000" opacity="1">35</text><text text-anchor="end" transform="translate(-7,36.33333333333335)" font-family="sans-serif" font-size="10px" fill="#000" opacity="1">40</text><text text-anchor="end" transform="translate(-7,3)" font-family="sans-serif" font-size="10px" fill="#000" opacity="1">45</text></g><g class="mark-rule role-axis-domain" pointer-events="none"><line transform="translate(0,300)" x2="0" y2="-300" stroke="#888" stroke-width="1" opacity="1"/></g><g class="mark-text role-axis-title" pointer-events="none"><text text-anchor="middle" transform="translate(-22.133333206176758,150) rotate(-90) translate(0,-2)" font-family="sans-serif" font-size="11px" font-weight="bold" fill="#000" opacity="1">Density</text></g></g><path class="foreground" aria-hidden="true" d="" pointer-events="none" display="none"/></g></g><g class="mark-group role-scope pathgroup" role="graphics-object" aria-roledescription="group mark container"><g transform="translate(0,0)"><path class="background" aria-hidden="true" d="M0,0h600v300h-600Z"/><g><g class="mark-line role-mark marks" role="graphics-object" aria-roledescription="line mark container"><path aria-label="Cosine Similarity: 0.860721886158; Density: 1.41098900917e-10; label: 0" role="graphics-symbol" aria-roledescription="line mark" d="M4.813,300L7.564,300L10.316,300L13.068,300L15.82,300L18.572,300L21.324,300L24.075,300L26.827,300L29.579,300L32.331,300L35.083,300L37.834,300L40.586,300L43.338,300L46.09,300L48.842,300L51.594,300L54.345,299.999L57.097,299.999L59.849,299.998L62.601,299.996L65.353,299.993L68.105,299.989L70.856,299.981L73.608,299.97L76.36,299.951L79.112,299.923L81.864,299.88L84.615,299.816L87.367,299.723L90.119,299.589L92.871,299.401L95.623,299.141L98.375,298.788L101.126,298.317L103.878,297.7L106.63,296.906L109.382,295.904L112.134,294.664L114.886,293.157L117.637,291.361L120.389,289.265L123.141,286.866L125.893,284.181L128.645,281.238L131.396,278.087L134.148,274.793L136.9,271.438L139.652,268.114L142.404,264.921L145.156,261.959L147.907,259.322L150.659,257.093L153.411,255.336L156.163,254.094L158.915,253.384L161.667,253.201L164.418,253.515L167.17,254.28L169.922,255.435L172.674,256.911L175.426,258.639L178.178,260.553L180.929,262.594L183.681,264.711L186.433,266.864L189.185,269.021L191.937,271.155L194.688,273.245L197.44,275.267L200.192,277.197L202.944,279.006L205.696,280.659L208.448,282.12L211.199,283.348L213.951,284.301L216.703,284.943L219.455,285.244L222.207,285.183L224.959,284.756L227.71,283.974L230.462,282.864L233.214,281.474L235.966,279.864L238.718,278.11L241.469,276.293L244.221,274.497L246.973,272.799L249.725,271.264L252.477,269.938L255.229,268.843L257.98,267.972L260.732,267.293L263.484,266.744L266.236,266.245L268.988,265.701L271.74,265.011L274.491,264.081L277.243,262.833L279.995,261.212L282.747,259.193L285.499,256.784L288.25,254.03L291.002,251.001L293.754,247.791L296.506,244.504L299.258,241.247L302.01,238.11L304.761,235.162L307.513,232.442L310.265,229.951L313.017,227.655L315.769,225.487L318.521,223.359L321.272,221.171L324.024,218.826L326.776,216.241L329.528,213.363L332.28,210.172L335.031,206.689L337.783,202.972L340.535,199.107L343.287,195.202L346.039,191.369L348.791,187.708L351.542,184.296L354.294,181.169L357.046,178.321L359.798,175.696L362.55,173.191L365.302,170.667L368.053,167.957L370.805,164.886L373.557,161.28L376.309,156.992L379.061,151.907L381.812,145.958L384.564,139.131L387.316,131.467L390.068,123.061L392.82,114.054L395.572,104.621L398.323,94.963L401.075,85.289L403.827,75.805L406.579,66.702L409.331,58.146L412.083,50.27L414.834,43.177L417.586,36.939L420.338,31.599L423.09,27.185L425.842,23.714L428.594,21.2L431.345,19.662L434.097,19.124L436.849,19.62L439.601,21.184L442.353,23.846L445.104,27.622L447.856,32.502L450.608,38.443L453.36,45.363L456.112,53.135L458.864,61.592L461.615,70.532L464.367,79.729L467.119,88.947L469.871,97.959L472.623,106.558L475.375,114.577L478.126,121.896L480.878,128.456L483.63,134.256L486.382,139.355L489.134,143.866L491.885,147.943L494.637,151.772L497.389,155.55L500.141,159.474L502.893,163.726L505.645,168.455L508.396,173.772L511.148,179.739L513.9,186.366L516.652,193.615L519.404,201.399L522.156,209.596L524.907,218.055L527.659,226.607L530.411,235.08L533.163,243.308L535.915,251.144L538.666,258.462L541.418,265.167L544.17,271.198L546.922,276.521L549.674,281.135L552.426,285.062L555.177,288.345" stroke="#4c78a8" stroke-width="2" opacity="0.7"/></g></g><path class="foreground" aria-hidden="true" d="" display="none"/></g><g transform="translate(0,0)"><path class="background" aria-hidden="true" d="M0,0h600v300h-600Z"/><g><g class="mark-line role-mark marks" role="graphics-object" aria-roledescription="line mark container"><path aria-label="Cosine Similarity: 0.860721886158; Density: 1.16081173676; label: 1" role="graphics-symbol" aria-roledescription="line mark" d="M4.813,292.261L7.564,292.051L10.316,291.854L13.068,291.663L15.82,291.472L18.572,291.271L21.324,291.051L24.075,290.803L26.827,290.517L29.579,290.184L32.331,289.795L35.083,289.342L37.834,288.819L40.586,288.221L43.338,287.544L46.09,286.787L48.842,285.95L51.594,285.034L54.345,284.043L57.097,282.98L59.849,281.853L62.601,280.666L65.353,279.427L68.105,278.143L70.856,276.82L73.608,275.464L76.36,274.08L79.112,272.672L81.864,271.242L84.615,269.791L87.367,268.318L90.119,266.82L92.871,265.293L95.623,263.731L98.375,262.129L101.126,260.478L103.878,258.773L106.63,257.006L109.382,255.173L112.134,253.271L114.886,251.298L117.637,249.256L120.389,247.151L123.141,244.992L125.893,242.791L128.645,240.565L131.396,238.334L134.148,236.119L136.9,233.946L139.652,231.84L142.404,229.83L145.156,227.94L147.907,226.195L150.659,224.618L153.411,223.228L156.163,222.04L158.915,221.065L161.667,220.308L164.418,219.771L167.17,219.452L169.922,219.342L172.674,219.43L175.426,219.703L178.178,220.144L180.929,220.736L183.681,221.46L186.433,222.297L189.185,223.229L191.937,224.238L194.688,225.307L197.44,226.421L200.192,227.565L202.944,228.725L205.696,229.888L208.448,231.042L211.199,232.174L213.951,233.274L216.703,234.329L219.455,235.328L222.207,236.262L224.959,237.12L227.71,237.893L230.462,238.573L233.214,239.155L235.966,239.633L238.718,240.005L241.469,240.27L244.221,240.429L246.973,240.486L249.725,240.445L252.477,240.312L255.229,240.094L257.98,239.798L260.732,239.431L263.484,238.996L266.236,238.499L268.988,237.939L271.74,237.316L274.491,236.624L277.243,235.856L279.995,234.999L282.747,234.04L285.499,232.961L288.25,231.744L291.002,230.369L293.754,228.815L296.506,227.065L299.258,225.099L302.01,222.906L304.761,220.474L307.513,217.8L310.265,214.882L313.017,211.729L315.769,208.35L318.521,204.766L321.272,200.998L324.024,197.073L326.776,193.023L329.528,188.881L332.28,184.68L335.031,180.454L337.783,176.237L340.535,172.057L343.287,167.943L346.039,163.918L348.791,160L351.542,156.205L354.294,152.543L357.046,149.022L359.798,145.646L362.55,142.418L365.302,139.337L368.053,136.407L370.805,133.627L373.557,131.001L376.309,128.534L379.061,126.234L381.812,124.111L384.564,122.179L387.316,120.453L390.068,118.952L392.82,117.697L395.572,116.707L398.323,116.004L401.075,115.61L403.827,115.542L406.579,115.82L409.331,116.456L412.083,117.463L414.834,118.846L417.586,120.608L420.338,122.748L423.09,125.258L425.842,128.126L428.594,131.337L431.345,134.869L434.097,138.697L436.849,142.794L439.601,147.126L442.353,151.66L445.104,156.359L447.856,161.185L450.608,166.1L453.36,171.066L456.112,176.045L458.864,181.003L461.615,185.906L464.367,190.726L467.119,195.435L469.871,200.014L472.623,204.443L475.375,208.712L478.126,212.812L480.878,216.739L483.63,220.493L486.382,224.08L489.134,227.505L491.885,230.779L494.637,233.911L497.389,236.915L500.141,239.802L502.893,242.585L505.645,245.274L508.396,247.88L511.148,250.411L513.9,252.875L516.652,255.276L519.404,257.617L522.156,259.901L524.907,262.128L527.659,264.297L530.411,266.408L533.163,268.457L535.915,270.443L538.666,272.364L541.418,274.217L544.17,276L546.922,277.713L549.674,279.353L552.426,280.92L555.177,282.415" stroke="#f58518" stroke-width="2" opacity="0.7"/></g></g><path class="foreground" aria-hidden="true" d="" display="none"/></g></g><g class="mark-group role-title"><g transform="translate(300,-22)"><path class="background" aria-hidden="true" d="M0,0h0v0h0Z" pointer-events="none"/><g><g class="mark-text role-title-text" role="graphics-symbol" aria-roledescription="title" aria-label="Title text 'Sensitivity Distribution by Label&#xA;Model: facebook/dinov3-vitl16-pretrain-sat493m'" pointer-events="none"><text text-anchor="middle" transform="translate(0,10)" font-family="sans-serif" font-size="13px" font-weight="bold" fill="#000" opacity="1">Sensitivity Distribution by Label
Model: facebook/dinov3-vitl16-pretrain-sat493m</text></g></g><path class="foreground" aria-hidden="true" d="" pointer-events="none" display="none"/></g></g></g><path class="foreground" aria-hidden="true" d="" display="none"/></g></g></g></svg>