<svg xmlns="http://www.w3.org/2000/svg" xmlns:xlink="http://www.w3.org/1999/xlink" version="1.1" class="marks" width="688" height="364" viewBox="0 0 688 364"><rect width="688" height="364" fill="white"/><g fill="none" stroke-miterlimit="10" transform="translate(39,27)"><g class="mark-group role-frame root" role="graphics-object" aria-roledescription="group mark container"><g transform="translate(0,0)"><path class="background" aria-hidden="true" d="M0.5,0.5h600v300h-600Z" stroke="#ddd"/><g><g class="mark-group role-axis" aria-hidden="true"><g transform="translate(0.5,300.5)"><path class="background" aria-hidden="true" d="M0,0h0v0h0Z" pointer-events="none"/><g><g class="mark-rule role-axis-grid" pointer-events="none"><line transform="translate(0,-300)" x2="0" y2="300" stroke="#ddd" stroke-width="1" opacity="1"/><line transform="translate(38,-300)" x2="0" y2="300" stroke="#ddd" stroke-width="1" opacity="1"/><line transform="translate(75,-300)" x2="0" y2="300" stroke="#ddd" stroke-width="1" opacity="1"/><line transform="translate(113,-300)" x2="0" y2="300" stroke="#ddd" stroke-width="1" opacity="1"/><line transform="translate(150,-300)" x2="0" y2="300" stroke="#ddd" stroke-width="1" opacity="1"/><line transform="translate(188,-300)" x2="0" y2="300" stroke="#ddd" stroke-width="1" opacity="1"/><line transform="translate(225,-300)" x2="0" y2="300" stroke="#ddd" stroke-width="1" opacity="1"/><line transform="translate(263,-300)" x2="0" y2="300" stroke="#ddd" stroke-width="1" opacity="1"/><line transform="translate(300,-300)" x2="0" y2="300" stroke="#ddd" stroke-width="1" opacity="1"/><line transform="translate(338,-300)" x2="0" y2="300" stroke="#ddd" stroke-width="1" opacity="1"/><line transform="translate(375,-300)" x2="0" y2="300" stroke="#ddd" stroke-width="1" opacity="1"/><line transform="translate(412,-300)" x2="0" y2="300" stroke="#ddd" stroke-width="1" opacity="1"/><line transform="translate(450,-300)" x2="0" y2="300" stroke="#ddd" stroke-width="1" opacity="1"/><line transform="translate(487,-300)" x2="0" y2="300" stroke="#ddd" stroke-width="1" opacity="1"/><line transform="translate(525,-300)" x2="0" y2="300" stroke="#ddd" stroke-width="1" opacity="1"/><line transform="translate(562,-300)" x2="0" y2="300" stroke="#ddd" stroke-width="1" opacity="1"/><line transform="translate(600,-300)" x2="0" y2="300" stroke="#ddd" stroke-width="1" opacity="1"/></g></g><path class="foreground" aria-hidden="true" d="" pointer-events="none" display="none"/></g></g><g class="mark-group role-axis" aria-hidden="true"><g transform="translate(0.5,0.5)"><path class="background" aria-hidden="true" d="M0,0h0v0h0Z" pointer-events="none"/><g><g class="mark-rule role-axis-grid" pointer-events="none"><line transform="translate(0,300)" x2="600" y2="0" stroke="#ddd" stroke-width="1" opacity="1"/><line transform="translate(0,267)" x2="600" y2="0" stroke="#ddd" stroke-width="1" opacity="1"/><line transform="translate(0,233)" x2="600" y2="0" stroke="#ddd" stroke-width="1" opacity="1"/><line transform="translate(0,200)" x2="600" y2="0" stroke="#ddd" stroke-width="1" opacity="1"/><line transform="translate(0,167)" x2="600" y2="0" stroke="#ddd" stroke-width="1" opacity="1"/><line transform="translate(0,133)" x2="600" y2="0" stroke="#ddd" stroke-width="1" opacity="1"/><line transform="translate(0,100)" x2="600" y2="0" stroke="#ddd" stroke-width="1" opacity="1"/><line transform="translate(0,67)" x2="600" y2="0" stroke="#ddd" stroke-width="1" opacity="1"/><line transform="translate(0,33)" x2="600" y2="0" stroke="#ddd" stroke-width="1" opacity="1"/><line transform="translate(0,0)" x2="600" y2="0" stroke="#ddd" stroke-width="1" opacity="1"/></g></g><path class="foreground" aria-hidden="true" d="" pointer-events="none" display="none"/></g></g><g class="mark-group role-axis" role="graphics-symbol" aria-roledescription="axis" aria-label="X-axis titled 'Cosine Similarity' for a linear scale with values from 0.89 to 0.97"><g transform="translate(0.5,300.5)"><path class="background" aria-hidden="true" d="M0,0h0v0h0Z" pointer-events="none"/><g><g class="mark-rule role-axis-tick" pointer-events="none"><line transform="translate(0,0)" x2="0" y2="5" stroke="#888" stroke-width="1" opacity="1"/><line transform="translate(38,0)" x2="0" y2="5" stroke="#888" stroke-width="1" opacity="1"/><line transform="translate(75,0)" x2="0" y2="5" stroke="#888" stroke-width="1" opacity="1"/><line transform="translate(113,0)" x2="0" y2="5" stroke="#888" stroke-width="1" opacity="1"/><line transform="translate(150,0)" x2="0" y2="5" stroke="#888" stroke-width="1" opacity="1"/><line transform="translate(188,0)" x2="0" y2="5" stroke="#888" stroke-width="1" opacity="1"/><line transform="translate(225,0)" x2="0" y2="5" stroke="#888" stroke-width="1" opacity="1"/><line transform="translate(263,0)" x2="0" y2="5" stroke="#888" stroke-width="1" opacity="1"/><line transform="translate(300,0)" x2="0" y2="5" stroke="#888" stroke-width="1" opacity="1"/><line transform="translate(338,0)" x2="0" y2="5" stroke="#888" stroke-width="1" opacity="1"/><line transform="translate(375,0)" x2="0" y2="5" stroke="#888" stroke-width="1" opacity="1"/><line transform="translate(412,0)" x2="0" y2="5" stroke="#888" stroke-width="1" opacity="1"/><line transform="translate(450,0)" x2="0" y2="5" stroke="#888" stroke-width="1" opacity="1"/><line transform="translate(487,0)" x2="0" y2="5" stroke="#888" stroke-width="1" opacity="1"/><line transform="translate(525,0)" x2="0" y2="5" stroke="#888" stroke-width="1" opacity="1"/><line transform="translate(562,0)" x2="0" y2="5" stroke="#888" stroke-width="1" opacity="1"/><line transform="translate(600,0)" x2="0" y2="5" stroke="#888" stroke-width="1" opacity="1"/></g><g class="mark-text role-axis-label" pointer-events="none"><text text-anchor="start" transform="translate(0,15)" font-family="sans-serif" font-size="10px" fill="#000" opacity="1">0.890</text><text text-anchor="middle" transform="translate(37.50000000000005,15)" font-family="sans-serif" font-size="10px" fill="#000" opacity="0">0.895</text><text text-anchor="middle" transform="translate(75.0000000000001,15)" font-family="sans-serif" font-size="10px" fill="#000" opacity="1">0.900</text><text text-anchor="middle" transform="translate(112.50000000000016,15)" font-family="sans-serif" font-size="10px" fill="#000" opacity="0">0.905</text><text text-anchor="middle" transform="translate(150.0000000000002,15)" font-family="sans-serif" font-size="10px" fill="#000" opacity="1">0.910</text><text text-anchor="middle" transform="translate(187.50000000000026,15)" font-family="sans-serif" font-size="10px" fill="#000" opacity="0">0.915</text><text text-anchor="middle" transform="translate(225.0000000000003,15)" font-family="sans-serif" font-size="10px" fill="#000" opacity="1">0.920</text><text text-anchor="middle" transform="translate(262.50000000000034,15)" font-family="sans-serif" font-size="10px" fill="#000" opacity="0">0.925</text><text text-anchor="middle" transform="translate(300.0000000000004,15)" font-family="sans-serif" font-size="10px" fill="#000" opacity="1">0.930</text><text text-anchor="middle" transform="translate(337.50000000000045,15)" font-family="sans-serif" font-size="10px" fill="#000" opacity="0">0.935</text><text text-anchor="middle" transform="translate(374.99999999999966,15)" font-family="sans-serif" font-size="10px" fill="#000" opacity="1">0.940</text><text text-anchor="middle" transform="translate(412.4999999999997,15)" font-family="sans-serif" font-size="10px" fill="#000" opacity="0">0.945</text><text text-anchor="middle" transform="translate(449.9999999999998,15)" font-family="sans-serif" font-size="10px" fill="#000" opacity="1">0.950</text><text text-anchor="middle" transform="translate(487.4999999999999,15)" font-family="sans-serif" font-size="10px" fill="#000" opacity="0">0.955</text><text text-anchor="middle" transform="translate(524.9999999999999,15)" font-family="sans-serif" font-size="10px" fill="#000" opacity="1">0.960</text><text text-anchor="middle" transform="translate(562.4999999999999,15)" font-family="sans-serif" font-size="10px" fill="#000" opacity="0">0.965</text><text text-anchor="end" transform="translate(600,15)" font-family="sans-serif" font-size="10px" fill="#000" opacity="1">0.970</text></g><g class="mark-rule role-axis-domain" pointer-events="none"><line transform="translate(0,0)" x2="600" y2="0" stroke="#888" stroke-width="1" opacity="1"/></g><g class="mark-text role-axis-title" pointer-events="none"><text text-anchor="middle" transform="translate(300,30)" font-family="sans-serif" font-size="11px" font-weight="bold" fill="#000" opacity="1">Cosine Similarity</text></g></g><path class="foreground" aria-hidden="true" d="" pointer-events="none" display="none"/></g></g><g class="mark-group role-axis" role="graphics-symbol" aria-roledescription="axis" aria-label="Y-axis titled 'Density' for a linear scale with values from 0 to 45"><g transform="translate(0.5,0.5)"><path class="background" aria-hidden="true" d="M0,0h0v0h0Z" pointer-events="none"/><g><g class="mark-rule role-axis-tick" pointer-events="none"><line transform="translate(0,300)" x2="-5" y2="0" stroke="#888" stroke-width="1" opacity="1"/><line transform="translate(0,267)" x2="-5" y2="0" stroke="#888" stroke-width="1" opacity="1"/><line transform="translate(0,233)" x2="-5" y2="0" stroke="#888" stroke-width="1" opacity="1"/><line transform="translate(0,200)" x2="-5" y2="0" stroke="#888" stroke-width="1" opacity="1"/><line transform="translate(0,167)" x2="-5" y2="0" stroke="#888" stroke-width="1" opacity="1"/><line transform="translate(0,133)" x2="-5" y2="0" stroke="#888" stroke-width="1" opacity="1"/><line transform="translate(0,100)" x2="-5" y2="0" stroke="#888" stroke-width="1" opacity="1"/><line transform="translate(0,67)" x2="-5" y2="0" stroke="#888" stroke-width="1" opacity="1"/><line transform="translate(0,33)" x2="-5" y2="0" stroke="#888" stroke-width="1" opacity="1"/><line transform="translate(0,0)" x2="-5" y2="0" stroke="#888" stroke-width="1" opacity="1"/></g><g class="mark-text role-axis-label" pointer-events="none"><text text-anchor="end" transform="translate(-7,303)" font-family="sans-serif" font-size="10px" fill="#000" opacity="1">0</text><text text-anchor="end" transform="translate(-7,269.66666666666663)" font-family="sans-serif" font-size="10px" fill="#000" opacity="1">5</text><text text-anchor="end" transform="translate(-7,236.33333333333334)" font-family="sans-serif" font-size="10px" fill="#000" opacity="1">10</text><text text-anchor="end" transform="translate(-7,203.00000000000003)" font-family="sans-serif" font-size="10px" fill="#000" opacity="1">15</text><text text-anchor="end" transform="translate(-7,169.66666666666669)" font-family="sans-serif" font-size="10px" fill="#000" opacity="1">20</text><text text-anchor="end" transform="translate(-7,136.33333333333331)" font-family="sans-serif" font-size="10px" fill="#000" opacity="1">25</text><text text-anchor="end" transform="translate(-7,103.00000000000001)" font-family="sans-serif" font-size="10px" fill="#000" opacity="1">30</text><text text-anchor="end" transform="translate(-7,69.66666666666666)" font-family="sans-serif" font-size="10px" fill="#000" opacity="1">35</text><text text-anchor="end" transform="translate(-7,36.33333333333335)" font-family="sans-serif" font-size="10px" fill="#000" opacity="1">40</text><text text-anchor="end" transform="translate(-7,3)" font-family="sans-serif" font-size="10px" fill="#000" opacity="1">45</text></g><g class="mark-rule role-axis-domain" pointer-events="none"><line transform="translate(0,300)" x2="0" y2="-300" stroke="#888" stroke-width="1" opacity="1"/></g><g class="mark-text role-axis-title" pointer-events="none"><text text-anchor="middle" transform="translate(-22.133333206176758,150) rotate(-90) translate(0,-2)" font-family="sans-serif" font-size="11px" font-weight="bold" fill="#000" opacity="1">Density</text></g></g><path class="foreground" aria-hidden="true" d="" pointer-events="none" display="none"/></g></g><g class="mark-group role-scope pathgroup" role="graphics-object" aria-roledescription="group mark container"><g transform="translate(0,0)"><path class="background" aria-hidden="true" d="M0,0h600v300h-600Z"/><g><g class="mark-line role-mark marks" role="graphics-object" aria-roledescription="line mark container"><path aria-label="Cosine Similarity: 0.89404296875; Density: 3.04160465219; label: 0" role="graphics-symbol" aria-roledescription="line mark" d="M30.322,279.723L32.977,278.987L35.632,278.353L38.287,277.824L40.942,277.4L43.597,277.078L46.252,276.847L48.907,276.698L51.562,276.614L54.218,276.575L56.873,276.562L59.528,276.55L62.183,276.514L64.838,276.43L67.493,276.273L70.148,276.021L72.803,275.652L75.458,275.15L78.113,274.502L80.768,273.699L83.423,272.735L86.078,271.612L88.733,270.333L91.388,268.906L94.043,267.341L96.698,265.65L99.353,263.843L102.008,261.932L104.663,259.924L107.318,257.824L109.973,255.632L112.628,253.341L115.283,250.939L117.938,248.409L120.593,245.727L123.248,242.866L125.903,239.796L128.558,236.485L131.213,232.902L133.868,229.02L136.523,224.815L139.178,220.274L141.833,215.391L144.489,210.171L147.144,204.631L149.799,198.8L152.454,192.721L155.109,186.445L157.764,180.033L160.419,173.556L163.074,167.085L165.729,160.698L168.384,154.467L171.039,148.462L173.694,142.748L176.349,137.377L179.004,132.392L181.659,127.823L184.314,123.689L186.969,119.992L189.624,116.726L192.279,113.873L194.934,111.405L197.589,109.288L200.244,107.484L202.899,105.953L205.554,104.653L208.209,103.547L210.864,102.602L213.519,101.787L216.174,101.08L218.829,100.466L221.484,99.935L224.139,99.485L226.794,99.116L229.449,98.838L232.104,98.661L234.76,98.597L237.415,98.661L240.07,98.867L242.725,99.228L245.38,99.754L248.035,100.453L250.69,101.33L253.345,102.385L256,103.615L258.655,105.013L261.31,106.57L263.965,108.271L266.62,110.102L269.275,112.045L271.93,114.08L274.585,116.188L277.24,118.35L279.895,120.547L282.55,122.763L285.205,124.981L287.86,127.189L290.515,129.379L293.17,131.546L295.825,133.688L298.48,135.81L301.135,137.919L303.79,140.028L306.445,142.156L309.1,144.324L311.755,146.558L314.41,148.884L317.065,151.334L319.72,153.938L322.375,156.723L325.031,159.718L327.686,162.943L330.341,166.416L332.996,170.146L335.651,174.133L338.306,178.37L340.961,182.839L343.616,187.51L346.271,192.347L348.926,197.301L351.581,202.319L354.236,207.338L356.891,212.294L359.546,217.117L362.201,221.741L364.856,226.098L367.511,230.129L370.166,233.777L372.821,236.997L375.476,239.751L378.131,242.015L380.786,243.773L383.441,245.023L386.096,245.774L388.751,246.047L391.406,245.871L394.061,245.284L396.716,244.332L399.371,243.065L402.026,241.539L404.681,239.81L407.336,237.932L409.991,235.963L412.646,233.954L415.302,231.953L417.957,230.005L420.612,228.147L423.267,226.414L425.922,224.832L428.577,223.426L431.232,222.211L433.887,221.203L436.542,220.411L439.197,219.843L441.852,219.504L444.507,219.397L447.162,219.525L449.817,219.89L452.472,220.493L455.127,221.335L457.782,222.416L460.437,223.735L463.092,225.29L465.747,227.077L468.402,229.09L471.057,231.32L473.712,233.757L476.367,236.385L479.022,239.188L481.677,242.144L484.332,245.23L486.987,248.419L489.642,251.682L492.297,254.991L494.952,258.313L497.607,261.618L500.262,264.876L502.917,268.058L505.573,271.137L508.228,274.09L510.883,276.897L513.538,279.539L516.193,282.006L518.848,284.286L521.503,286.376L524.158,288.274L526.813,289.981L529.468,291.505L532.123,292.85L534.778,294.029L537.433,295.052L540.088,295.932L542.743,296.681L545.398,297.314L548.053,297.844L550.708,298.283L553.363,298.644L556.018,298.937L558.673,299.174L561.328,299.364" stroke="#4c78a8" stroke-width="2" opacity="0.7"/></g></g><path class="foreground" aria-hidden="true" d="" display="none"/></g><g transform="translate(0,0)"><path class="background" aria-hidden="true" d="M0,0h600v300h-600Z"/><g><g class="mark-line role-mark marks" role="graphics-object" aria-roledescription="line mark container"><path aria-label="Cosine Similarity: 0.89404296875; Density: 1.21574667589e-26; label: 1" role="graphics-symbol" aria-roledescription="line mark" d="M30.322,300L32.977,300L35.632,300L38.287,300L40.942,300L43.597,300L46.252,300L48.907,300L51.562,300L54.218,300L56.873,300L59.528,300L62.183,300L64.838,300L67.493,300L70.148,300L72.803,300L75.458,300L78.113,300L80.768,300L83.423,300L86.078,300L88.733,300L91.388,300L94.043,300L96.698,300L99.353,300L102.008,300L104.663,300L107.318,300L109.973,300L112.628,300L115.283,300L117.938,300L120.593,300L123.248,300L125.903,300L128.558,300L131.213,300L133.868,300L136.523,299.999L139.178,299.999L141.833,299.998L144.489,299.995L147.144,299.991L149.799,299.983L152.454,299.97L155.109,299.947L157.764,299.909L160.419,299.849L163.074,299.754L165.729,299.611L168.384,299.399L171.039,299.096L173.694,298.672L176.349,298.097L179.004,297.338L181.659,296.366L184.314,295.154L186.969,293.687L189.624,291.962L192.279,289.988L194.934,287.793L197.589,285.418L200.244,282.914L202.899,280.338L205.554,277.741L208.209,275.162L210.864,272.622L213.519,270.114L216.174,267.607L218.829,265.047L221.484,262.367L224.139,259.501L226.794,256.398L229.449,253.044L232.104,249.469L234.76,245.762L237.415,242.067L240.07,238.577L242.725,235.511L245.38,233.094L248.035,231.524L250.69,230.945L253.345,231.426L256,232.938L258.655,235.357L261.31,238.469L263.965,241.984L266.62,245.566L269.275,248.861L271.93,251.527L274.585,253.267L277.24,253.848L279.895,253.116L282.55,251.004L285.205,247.525L287.86,242.762L290.515,236.848L293.17,229.947L295.825,222.237L298.48,213.892L301.135,205.073L303.79,195.929L306.445,186.593L309.1,177.184L311.755,167.818L314.41,158.595L317.065,149.602L319.72,140.896L322.375,132.498L325.031,124.381L327.686,116.465L330.341,108.627L332.996,100.712L335.651,92.564L338.306,84.051L340.961,75.097L343.616,65.71L346.271,55.991L348.926,46.142L351.581,36.447L354.236,27.252L356.891,18.924L359.546,11.819L362.201,6.245L364.856,2.428L367.511,0.492L370.166,0.449L372.821,2.196L375.476,5.527L378.131,10.143L380.786,15.681L383.441,21.741L386.096,27.917L388.751,33.831L391.406,39.168L394.061,43.704L396.716,47.324L399.371,50.031L402.026,51.941L404.681,53.265L407.336,54.278L409.991,55.284L412.646,56.576L415.302,58.407L417.957,60.961L420.612,64.339L423.267,68.563L425.922,73.584L428.577,79.302L431.232,85.589L433.887,92.313L436.542,99.357L439.197,106.634L441.852,114.085L444.507,121.676L447.162,129.384L449.817,137.178L452.472,145.004L455.127,152.769L457.782,160.335L460.437,167.526L463.092,174.142L465.747,179.981L468.402,184.864L471.057,188.665L473.712,191.328L476.367,192.882L479.022,193.436L481.677,193.174L484.332,192.329L486.987,191.167L489.642,189.951L492.297,188.926L494.952,188.3L497.607,188.224L500.262,188.794L502.917,190.048L505.573,191.965L508.228,194.478L510.883,197.483L513.538,200.851L516.193,204.447L518.848,208.146L521.503,211.844L524.158,215.474L526.813,219.01L529.468,222.466L532.123,225.885L534.778,229.33L537.433,232.867L540.088,236.549L542.743,240.406L545.398,244.439L548.053,248.62L550.708,252.901L553.363,257.216L556.018,261.498L558.673,265.683L561.328,269.715" stroke="#f58518" stroke-width="2" opacity="0.7"/></g></g><path class="foreground" aria-hidden="true" d="" display="none"/></g></g><g class="mark-group role-legend" role="graphics-symbol" aria-roledescription="legend" aria-label="Symbol legend titled 'label' for stroke color with 2 values: 0, 1"><g transform="translate(618,0)"><path class="background" aria-hidden="true" d="M0,0h26v40h-26Z" pointer-events="none"/><g><g class="mark-group role-legend-entry"><g transform="translate(0,16)"><path class="background" aria-hidden="true" d="M0,0h0v0h0Z" pointer-events="none"/><g><g class="mark-group role-scope" role="graphics-object" aria-roledescription="group mark container"><g transform="translate(0,0)"><path class="background" aria-hidden="true" d="M0,0h21.56666660308838v11h-21.56666660308838Z" pointer-events="none" opacity="1"/><g><g class="mark-symbol role-legend-symbol" pointer-events="none"><path transform="translate(6,6)" d="M-5,0L5,0" stroke="#4c78a8" stroke-width="1.5" opacity="0.7"/></g><g class="mark-text role-legend-label" pointer-events="none"><text text-anchor="start" transform="translate(16,9)" font-family="sans-serif" font-size="10px" fill="#000" opacity="1">0</text></g></g><path class="foreground" aria-hidden="true" d="" pointer-events="none" display="none"/></g><g transform="translate(0,13)"><path class="background" aria-hidden="true" d="M0,0h21.56666660308838v11h-21.56666660308838Z" pointer-events="none" opacity="1"/><g><g class="mark-symbol role-legend-symbol" pointer-events="none"><path transform="translate(6,6)" d="M-5,0L5,0" stroke="#f58518" stroke-width="1.5" opacity="0.7"/></g><g class="mark-text role-legend-label" pointer-events="none"><text text-anchor="start" transform="translate(16,9)" font-family="sans-serif" font-size="10px" fill="#000" opacity="1">1</text></g></g><path class="foreground" aria-hidden="true" d="" pointer-events="none" display="none"/></g></g></g><path class="foreground" aria-hidden="true" d="" pointer-events="none" display="none"/></g></g><g class="mark-text role-legend-title" pointer-events="none"><text text-anchor="start" transform="translate(0,9)" font-family="sans-serif" font-size="11px" font-weight="bold" fill="#000" opacity="1">label</text></g></g><path class="foreground" aria-hidden="true" d="" pointer-events="none" display="none"/></g></g><g class="mark-group role-title"><g transform="translate(300,-22)"><path class="background" aria-hidden="true" d="M0,0h0v0h0Z" pointer-events="none"/><g><g class="mark-text role-title-text" role="graphics-symbol" aria-roledescription="title" aria-label="Title text 'Sensitivity by Label&#xA;Model: timm/vit_base_patch16_dinov3.lvd1689m'" pointer-events="none"><text text-anchor="middle" transform="translate(0,10)" font-family="sans-serif" font-size="13px" font-weight="bold" fill="#000" opacity="1">Sensitivity by Label
Model: timm/vit_base_patch16_dinov3.lvd1689m</text></g></g><path class="foreground" aria-hidden="true" d="" pointer-events="none" display="none"/></g></g></g><path class="foreground" aria-hidden="true" d="" display="none"/></g></g></g></svg>